<?xml version="1.0" encoding="utf-8"?>
<!-- Generator: Adobe Illustrator 23.0.1, SVG Export Plug-In . SVG Version: 6.00 Build 0)  -->
<svg version="1.1" id="Layer_1" xmlns="http://www.w3.org/2000/svg" xmlns:xlink="http://www.w3.org/1999/xlink" x="0px" y="0px"
	 viewBox="0 0 128 128" style="enable-background:new 0 0 128 128;" xml:space="preserve">
<style type="text/css">
	.st0{fill:#E62248;}
	.st1{fill:#DCDCDC;}
	.st2{fill:#F7F9FA;}
	.st3{fill:#EBF1F3;}
	.st4{fill:#BEA290;}
</style>
<g>
	<path class="st0" d="M64,0L64,0c35.35,0,64,28.65,64,64v0c0,35.35-28.65,64-64,64h0C28.65,128,0,99.35,0,64v0C0,28.65,28.65,0,64,0
		z"/>
	<path class="st1" d="M64,4.74L64,4.74c32.73,0,59.26,26.53,59.26,59.26v0c0,32.73-26.53,59.26-59.26,59.26h0
		C31.27,123.26,4.74,96.73,4.74,64v0C4.74,31.27,31.27,4.74,64,4.74z"/>
	<g>
		<path class="st2" d="M79.22,70.26c-0.91,0.76-2.05,1.45-3.41,2.07c-3.53,1.58-8.2,2.45-13.14,2.45c-4.95,0-9.61-0.87-13.14-2.45
			c-1.37-0.61-2.51-1.31-3.42-2.07l2.71,24.82c1.87,2.54,7.53,4.33,13.85,4.33c6.31,0,11.96-1.79,13.84-4.31l0.05-0.39L79,72.24
			L79.22,70.26z M78.19,74l-2.05,18.77c-0.03,0.3-0.28,0.52-0.58,0.52c-0.02,0-0.04,0-0.06-0.01c-0.32-0.03-0.55-0.32-0.52-0.64
			l2.05-18.77c0.03-0.3,0.28-0.52,0.58-0.52c0.02,0,0.04,0,0.06,0.01C77.99,73.4,78.23,73.69,78.19,74z"/>
		<path class="st2" d="M76.02,61.72c-3.71,1.46-8.4,2.26-13.35,2.26c-4.95,0-9.65-0.8-13.35-2.26l0,0
			c-1.44,0.82-2.44,1.75-2.92,2.73c-0.07,0.15-0.14,0.3-0.18,0.45c-0.09,0.28-0.14,0.57-0.14,0.85v0.01c0,0.27,0.04,0.54,0.12,0.82
			c0.07,0.21,0.15,0.42,0.26,0.62c1.72,3.18,8.54,5.48,16.21,5.48c0.26,0,0.52,0,0.78-0.01c0.31-0.01,0.61-0.01,0.92-0.03l0,0
			c2.08-0.09,4.07-0.35,5.88-0.75c4.26-0.94,7.52-2.63,8.62-4.7c0.11-0.2,0.2-0.41,0.26-0.63c0.08-0.26,0.12-0.53,0.12-0.8v-0.01
			c0-0.28-0.05-0.57-0.14-0.85C78.76,63.73,77.64,62.64,76.02,61.72z M62.47,72.1c-10.54-0.13-14.56-3.79-15.73-5.22
			c-0.23-0.28-0.15-0.7,0.16-0.88h0.01c0.25-0.14,0.56-0.08,0.73,0.14c0.4,0.48,1.25,1.34,2.78,2.19c2.07,1.16,5.83,2.53,12.07,2.61
			c0.32,0.01,0.58,0.26,0.58,0.58C63.06,71.84,62.79,72.1,62.47,72.1z M68.31,71.68c-1.8,0.36-2.09,0.26-2.99,0.33
			c-0.33,0.03-0.61-0.23-0.62-0.55l0,0c-0.01-0.31,0.22-0.58,0.54-0.61c0.87-0.07,1.12,0.04,2.84-0.31
			c0.31-0.06,0.61,0.13,0.68,0.44C68.83,71.3,68.62,71.62,68.31,71.68z"/>
		<path class="st3" d="M44.36,54.27c0,0.21,0.02,0.42,0.07,0.63v0.01c0.02,0.1,0.05,0.2,0.07,0.29c0.47,1.55,2.08,3.01,4.59,4.19
			c0.41,0.2,0.84,0.38,1.3,0.56c0.51,0.2,1.05,0.39,1.59,0.56c3.11,0.96,6.83,1.48,10.68,1.48c3.84,0,7.56-0.52,10.66-1.48
			c0.56-0.18,1.1-0.36,1.63-0.56c0.45-0.18,0.88-0.36,1.29-0.55l0,0c2.52-1.18,4.12-2.65,4.59-4.2c0.02-0.07,0.03-0.12,0.05-0.19
			l0.01-0.09h0.01c0-0.01,0.01-0.01,0.01-0.03l0,0v-0.01c0.04-0.18,0.06-0.37,0.06-0.56v-0.01c0-0.01,0-0.03,0-0.03l0,0
			c0-0.08-0.01-0.17-0.01-0.25l0,0c-0.7,0.65-1.44,1.24-2.24,1.75c-0.65,0.42-1.34,0.8-2.04,1.11c-2.02,0.91-4.22,1.39-6.5,1.39
			c-4.17,0-8.1-1.6-11.06-4.51c-1.13-1.11-2.07-2.36-2.81-3.73c-0.19-0.35-0.37-0.71-0.53-1.08c-0.12-0.28-0.24-0.57-0.35-0.86
			c-0.1-0.27-0.2-0.54-0.28-0.82c-6.28,1.24-10.77,3.94-10.78,6.99v0.01H44.36z"/>
		<path class="st3" d="M46.01,61.35c0.29-0.25,0.6-0.49,0.94-0.73c-0.76-0.42-1.44-0.86-2.04-1.33l0.31,2.83
			C45.45,61.85,45.72,61.6,46.01,61.35z"/>
		<path class="st3" d="M80.11,62.11l0.31-2.81c-0.59,0.46-1.27,0.91-2.03,1.33C79.06,61.09,79.64,61.58,80.11,62.11z"/>
		<path class="st0" d="M82.38,30.13c-3.27-3.21-7.6-4.98-12.2-4.98c-4.6,0-8.93,1.76-12.2,4.98c-3.34,3.28-5.18,7.68-5.18,12.39
			c0,0.5,0.02,1.01,0.07,1.5c-1.88,0.44-3.62,1.03-5.18,1.72c-4.41,1.97-6.98,4.8-7.26,7.95l4.46,41.84l0.11,0.24
			c0.33,0.74,0.82,1.44,1.46,2.09l0.07,0.07c0.19,0.19,0.38,0.37,0.58,0.53c0.34,0.29,0.72,0.58,1.13,0.85
			c0.68,0.45,1.46,0.88,2.31,1.25c3.28,1.47,7.59,2.28,12.13,2.28c4.54,0,8.84-0.81,12.12-2.28c0.85-0.38,1.62-0.8,2.29-1.25
			c0.41-0.27,0.79-0.56,1.14-0.86c0.18-0.16,0.37-0.32,0.54-0.5c0.03-0.03,0.06-0.06,0.08-0.08l0.02-0.02
			c0.62-0.64,1.11-1.33,1.44-2.06l0.11-0.24l4.38-40.06c0.01-0.05,0.02-0.1,0.03-0.14l0.01-0.05l0.01-0.04l0.07-0.62l0.01-0.09
			v-0.05l0.01-0.02v-0.1c0-0.02,0-0.05,0-0.07v-0.05c0-0.03,0-0.06,0-0.08v-0.03c0-0.14-0.01-0.29-0.02-0.44
			c-0.04-0.5-0.14-1-0.3-1.48c0.56-0.84,1.06-1.73,1.46-2.65c0.67-1.5,1.12-3.1,1.34-4.76c0.1-0.73,0.14-1.47,0.15-2.24v-0.08
			C87.55,37.82,85.72,33.42,82.38,30.13z M85.93,42.6c-0.01,0.69-0.05,1.37-0.14,2.03c-0.2,1.5-0.6,2.95-1.21,4.31
			c-0.49,1.1-1.1,2.13-1.82,3.09l0,0c0.05,0.11,0.1,0.22,0.15,0.33c0.2,0.5,0.33,1,0.37,1.52c0.01,0.1,0.01,0.21,0.01,0.31l0,0l0,0
			l0,0v0.04c0,0.01,0,0.03,0,0.05v0.05c0,0.01,0,0.03,0,0.04v0.01v0.02c0,0.03,0,0.06,0,0.09v0.01l-0.07,0.6v0.01
			c-0.01,0.05-0.02,0.11-0.03,0.16l-4.06,37.18l-0.29,2.69c-0.25,0.56-0.63,1.09-1.13,1.6l-0.02,0.02
			c-0.01,0.01-0.03,0.03-0.04,0.04c-0.14,0.15-0.3,0.29-0.47,0.44c-0.3,0.25-0.63,0.5-0.99,0.74c-0.6,0.4-1.29,0.77-2.06,1.12
			c-3.08,1.38-7.15,2.14-11.46,2.14s-8.39-0.76-11.46-2.14c-0.77-0.35-1.46-0.72-2.07-1.12c-0.35-0.24-0.68-0.48-0.97-0.73
			c-0.17-0.14-0.33-0.29-0.48-0.44l-0.01-0.01c-0.01-0.01-0.03-0.03-0.05-0.05c-0.5-0.52-0.89-1.07-1.14-1.63l-0.29-2.63l-4.07-37.3
			l0,0c0-0.01,0-0.01,0-0.01v-0.01l-0.08-0.74V54.4c0-0.05,0-0.09,0-0.13c0-0.14,0.01-0.27,0.02-0.41c0.21-2.56,2.42-4.9,6.3-6.63
			c0.93-0.41,1.92-0.78,2.98-1.1c1.06-0.32,2.17-0.59,3.33-0.82c-0.04-0.21-0.07-0.42-0.1-0.64c-0.09-0.71-0.14-1.43-0.14-2.14
			c0-4.27,1.67-8.26,4.69-11.23c2.96-2.91,6.89-4.51,11.06-4.51c4.17,0,8.1,1.6,11.06,4.51c3.03,2.97,4.69,6.96,4.69,11.23v0.08
			H85.93z"/>
		<path class="st4" d="M70.18,29.32c-7.54,0-13.69,5.92-13.71,13.18v0.03c0,0.58,0.04,1.17,0.12,1.75c0.03,0.24,0.07,0.46,0.12,0.69
			l0,0c0.13,0.67,0.31,1.32,0.54,1.95l0,0c0.13,0.37,0.28,0.72,0.45,1.07c0.33,0.7,0.72,1.36,1.16,1.98
			c2.49,3.5,6.67,5.76,11.32,5.76c1.82,0,3.58-0.35,5.18-0.98c0.71-0.28,1.39-0.62,2.04-1.01c0.93-0.56,1.78-1.22,2.55-1.97
			c0.35-0.34,0.68-0.71,0.99-1.08c1.49-1.81,2.5-4.02,2.83-6.44c0.08-0.57,0.12-1.15,0.12-1.73v-0.01
			C83.89,35.24,77.74,29.32,70.18,29.32z M63.83,43.15c-1.27,0-2.31-1.03-2.31-2.31s1.03-2.31,2.31-2.31c1.27,0,2.31,1.03,2.31,2.31
			S65.11,43.15,63.83,43.15z M71.17,51.57c-1.02,0-1.84-0.82-1.84-1.84c0-1.02,0.82-1.84,1.84-1.84c1.02,0,1.84,0.82,1.84,1.84
			C73.02,50.75,72.19,51.57,71.17,51.57z M75.09,37.69c-0.99,0-1.8-0.81-1.8-1.8c0-0.99,0.81-1.8,1.8-1.8c0.99,0,1.8,0.81,1.8,1.8
			C76.89,36.88,76.08,37.69,75.09,37.69z"/>
		<g>
			<path d="M70.18,26.79c-4.17,0-8.1,1.6-11.06,4.51c-3.03,2.97-4.69,6.96-4.69,11.23c0,0.71,0.05,1.44,0.14,2.14
				c0.03,0.22,0.06,0.42,0.1,0.64c-1.16,0.22-2.27,0.5-3.33,0.82c-1.06,0.32-2.05,0.69-2.98,1.1c-3.87,1.73-6.09,4.08-6.3,6.63
				c-0.01,0.13-0.02,0.27-0.02,0.41c0,0.05,0,0.09,0,0.13v0.01l0.08,0.74v0.01c0,0.01,0,0.01,0,0.01l0,0l4.07,37.3l0.29,2.63
				c0.25,0.56,0.64,1.11,1.14,1.63c0.01,0.01,0.03,0.03,0.05,0.05l0.01,0.01c0.15,0.15,0.31,0.3,0.48,0.44
				c0.29,0.25,0.62,0.5,0.97,0.73c0.61,0.41,1.3,0.78,2.07,1.12c3.08,1.38,7.15,2.14,11.46,2.14s8.39-0.76,11.46-2.14
				c0.77-0.35,1.46-0.72,2.06-1.12c0.36-0.24,0.69-0.48,0.99-0.74c0.17-0.14,0.33-0.29,0.47-0.44c0.01-0.01,0.03-0.03,0.04-0.04
				l0.02-0.02c0.5-0.51,0.88-1.05,1.13-1.6l0.29-2.69l4.06-37.18c0.01-0.05,0.03-0.1,0.03-0.16v-0.01l0.07-0.6v-0.01
				c0-0.03,0-0.06,0-0.09v-0.02v-0.01c0-0.01,0-0.03,0-0.04v-0.05c0-0.01,0-0.03,0-0.05v-0.04l0,0l0,0l0,0
				c0-0.1-0.01-0.21-0.01-0.31c-0.04-0.52-0.16-1.02-0.37-1.52c-0.05-0.11-0.09-0.22-0.15-0.33l0,0c0.73-0.95,1.33-1.99,1.82-3.09
				c0.61-1.37,1.01-2.82,1.21-4.31c0.08-0.66,0.13-1.34,0.14-2.03v-0.08c0-4.27-1.67-8.26-4.69-11.23
				C78.28,28.39,74.35,26.79,70.18,26.79z M76.51,95.08c-1.88,2.53-7.52,4.31-13.84,4.31c-6.32,0-11.98-1.8-13.85-4.33l-2.71-24.82
				c0.91,0.76,2.05,1.46,3.42,2.07c3.53,1.58,8.2,2.45,13.14,2.45c4.94,0,9.61-0.87,13.14-2.45c1.37-0.61,2.5-1.3,3.41-2.07
				L79,72.23l-2.45,22.46L76.51,95.08z M79.27,65.76c0,0.27-0.04,0.54-0.12,0.8c-0.07,0.21-0.15,0.42-0.26,0.63
				c-1.1,2.07-4.37,3.76-8.62,4.7c-1.81,0.4-3.8,0.66-5.88,0.75l0,0c-0.31,0.01-0.61,0.03-0.92,0.03c-0.26,0.01-0.52,0.01-0.78,0.01
				c-7.67,0-14.49-2.31-16.21-5.48c-0.11-0.2-0.2-0.41-0.26-0.62c-0.08-0.27-0.12-0.55-0.12-0.82v-0.01c0-0.28,0.05-0.57,0.14-0.85
				c0.05-0.15,0.11-0.3,0.18-0.45c0.48-0.98,1.48-1.91,2.92-2.73l0,0c3.71,1.46,8.41,2.26,13.35,2.26s9.64-0.8,13.35-2.26
				c1.63,0.92,2.74,2.01,3.11,3.18C79.22,65.19,79.27,65.47,79.27,65.76L79.27,65.76z M55.15,47.26c0.08,0.27,0.18,0.55,0.28,0.82
				c0.11,0.29,0.22,0.58,0.35,0.86c0.16,0.37,0.34,0.73,0.53,1.08c0.74,1.37,1.68,2.62,2.81,3.73c2.96,2.91,6.89,4.51,11.06,4.51
				c2.28,0,4.48-0.48,6.5-1.39c0.71-0.32,1.39-0.69,2.04-1.11c0.79-0.51,1.54-1.09,2.24-1.75l0,0c0.01,0.08,0.01,0.17,0.01,0.25l0,0
				c0,0.01,0,0.03,0,0.03v0.01c0,0.18-0.02,0.37-0.06,0.56v0.01l0,0c0,0.01-0.01,0.01-0.01,0.03H80.9L80.89,55
				c-0.01,0.07-0.03,0.13-0.05,0.19c-0.46,1.55-2.08,3.02-4.59,4.2l0,0c-0.41,0.19-0.84,0.38-1.29,0.55
				c-0.52,0.2-1.07,0.39-1.63,0.56c-3.1,0.96-6.82,1.48-10.66,1.48c-3.84,0-7.57-0.52-10.68-1.48c-0.55-0.17-1.09-0.35-1.59-0.56
				c-0.46-0.18-0.9-0.36-1.3-0.56c-2.51-1.18-4.12-2.65-4.59-4.19c-0.03-0.1-0.05-0.2-0.07-0.29V54.9
				c-0.05-0.21-0.07-0.42-0.07-0.63v-0.01C44.38,51.21,48.87,48.5,55.15,47.26z M44.91,59.28c0.59,0.47,1.27,0.92,2.04,1.33
				c-0.34,0.24-0.65,0.48-0.94,0.73c-0.29,0.25-0.55,0.5-0.79,0.77L44.91,59.28z M80.11,62.11c-0.48-0.52-1.05-1.02-1.73-1.48
				c0.76-0.41,1.44-0.86,2.03-1.33L80.11,62.11z M83.89,42.53c0,0.58-0.04,1.16-0.12,1.73c-0.33,2.42-1.34,4.63-2.83,6.44
				c-0.31,0.38-0.64,0.74-0.99,1.08c-0.76,0.75-1.62,1.41-2.55,1.97c-0.65,0.39-1.33,0.73-2.04,1.01c-1.61,0.63-3.36,0.98-5.18,0.98
				c-4.65,0-8.82-2.27-11.32-5.76c-0.44-0.62-0.84-1.29-1.16-1.98c-0.16-0.35-0.31-0.71-0.45-1.07l0,0
				c-0.23-0.63-0.41-1.27-0.54-1.95l0,0c-0.05-0.23-0.08-0.46-0.12-0.69c-0.08-0.58-0.12-1.17-0.12-1.75v-0.03
				c0.01-7.27,6.16-13.18,13.71-13.18C77.74,29.32,83.89,35.24,83.89,42.53L83.89,42.53z"/>
			<path d="M77.67,73.37c-0.02,0-0.04-0.01-0.06-0.01c-0.29,0-0.54,0.22-0.58,0.52l-2.05,18.77c-0.03,0.32,0.2,0.61,0.52,0.64
				c0.02,0,0.04,0.01,0.06,0.01c0.29,0,0.54-0.22,0.58-0.52l2.05-18.77C78.23,73.69,77.99,73.4,77.67,73.37z"/>
			<path d="M62.48,70.93c-6.24-0.08-10-1.45-12.07-2.61c-1.53-0.86-2.38-1.71-2.78-2.19c-0.18-0.22-0.49-0.27-0.73-0.14h-0.01
				c-0.31,0.18-0.39,0.59-0.16,0.88c1.17,1.43,5.19,5.09,15.73,5.22c0.33,0.01,0.59-0.25,0.59-0.58
				C63.06,71.19,62.8,70.94,62.48,70.93z"/>
			<circle cx="71.17" cy="49.73" r="1.84"/>
			<circle cx="63.83" cy="40.84" r="2.31"/>
			<circle cx="75.09" cy="35.88" r="1.8"/>
			<path d="M68.08,70.54c-1.73,0.35-1.97,0.24-2.84,0.31c-0.31,0.03-0.55,0.29-0.54,0.61l0,0c0.01,0.33,0.29,0.58,0.62,0.55
				c0.9-0.07,1.18,0.03,2.99-0.33c0.32-0.07,0.52-0.38,0.45-0.7C68.69,70.68,68.39,70.48,68.08,70.54z"/>
		</g>
	</g>
</g>
</svg>
